<?xml version="1.0" encoding="utf-8"?>
<!-- Generator: Adobe Illustrator 19.0.0, SVG Export Plug-In . SVG Version: 6.00 Build 0)  -->
<svg version="1.1" id="Layer_1" xmlns="http://www.w3.org/2000/svg" xmlns:xlink="http://www.w3.org/1999/xlink" x="0px" y="0px"
	 viewBox="-49 141 512 512" style="enable-background:new -49 141 512 512;" xml:space="preserve">
<style type="text/css">
	.st0{fill:#FFFFFF;}
</style>
<path class="st0" d="M282,217c0,8.3-6.7,15-15,15s-15-6.7-15-15s6.7-15,15-15S282,208.7,282,217z"/>
<path class="st0" d="M207,352c-7.8,0-26.7,30.1-29.6,90h59.3C233.8,382.9,215.1,352,207,352z"/>
<path class="st0" d="M103.1,442h44.3c1.2-26.5,5.7-56.2,15.9-80.4C131.5,376.2,108.2,406.2,103.1,442z"/>
<path class="st0" d="M147.3,472h-44.3c5.1,35.8,28.4,65.8,60.2,80.4C153.1,528.2,148.5,498.5,147.3,472z"/>
<path class="st0" d="M463,262v-66c0-30.3-24.7-55-55-55H6c-30.3,0-55,24.7-55,55v66H463z M387,202c8.3,0,15,6.7,15,15s-6.7,15-15,15
	s-15-6.7-15-15S378.7,202,387,202z M327,202c8.3,0,15,6.7,15,15s-6.7,15-15,15s-15-6.7-15-15S318.7,202,327,202z M27,202h120
	c8.3,0,15,6.7,15,15s-6.7,15-15,15H27c-8.3,0-15-6.7-15-15S18.7,202,27,202z"/>
<path class="st0" d="M207,562c7.8,0,26.7-30.1,29.6-90h-59.3C180.2,531.1,198.9,562,207,562z"/>
<path class="st0" d="M250.7,552.4c31.8-14.6,55-44.6,60.2-80.4h-44.3C265.5,498.5,260.9,528.2,250.7,552.4z"/>
<path class="st0" d="M-49,292v306c0,30.3,24.7,55,55,55h402c30.3,0,55-24.7,55-55V292H-49z M207,592c-74.4,0-135-60.6-135-135
	s60.6-135,135-135s135,60.6,135,135S281.4,592,207,592z"/>
<path class="st0" d="M250.7,361.6c10.2,24.2,14.7,54,15.9,80.4h44.3C305.8,406.2,282.5,376.2,250.7,361.6z"/>
</svg>
